<svg width="167" height="55" viewBox="0 0 167 55" fill="none" xmlns="http://www.w3.org/2000/svg">
<circle cx="42" cy="19" r="14" fill="#FDC500"/>
<path d="M67 7.33334H130.575C145.17 7.33334 157 13.0785 157 20.1667V42.1667C157 43.1796 155.311 44 153.225 44H145.675C143.589 44 141.9 43.1796 141.9 42.1667V36.6667H21.1V42.1667C21.1 43.1796 19.4107 44 17.325 44H9.775C7.68931 44 6 43.1796 6 42.1667V1.83334C6 0.820427 7.68931 0 9.775 0H17.325C19.4107 0 21.1 0.820427 21.1 1.83334V25.6667H63V9.16669C63 8.15377 64.9143 7.33334 67 7.33334Z" fill="#FDC500"/>
<mask id="path-3-outside-1_87_118" maskUnits="userSpaceOnUse" x="6" y="12" width="155" height="42" fill="black">
<rect fill="white" x="6" y="12" width="155" height="42"/>
<path d="M14.8906 45V42.2656L17.3125 41.7969V25.4688L14.8906 25V22.25H25.6719C27.4219 22.25 28.9219 22.5208 30.1719 23.0625C31.4219 23.6042 32.3802 24.3802 33.0469 25.3906C33.724 26.401 34.0625 27.6146 34.0625 29.0312C34.0625 30.3646 33.7292 31.5573 33.0625 32.6094C32.3958 33.6615 31.4688 34.4896 30.2812 35.0938C29.0938 35.6979 27.724 36.0052 26.1719 36.0156H21.875V41.7969L24.3125 42.2656V45H14.8906ZM29.5312 45L25.7031 35.1719L29.8125 34.1562L33.125 41.8125L35.0625 42.2656V45H29.5312ZM21.875 32.5H25.5938C26.9062 32.5 27.8854 32.224 28.5312 31.6719C29.1875 31.1094 29.5156 30.2969 29.5156 29.2344C29.5156 28.1823 29.1927 27.3438 28.5469 26.7188C27.901 26.0833 26.9427 25.7656 25.6719 25.7656H21.875V32.5ZM36.8594 45V42.2656L39.0625 41.7969V31.3125L36.625 30.8438V28.0938H43.625V41.7969L45.8125 42.2656V45H36.8594ZM38.9062 24.5156V20.625H43.625V24.5156H38.9062ZM53.6406 45L48.5312 31.125L46.7031 30.8438V28.0938H54.9062V30.8281L53.125 31.1406L55.6719 38.8125L56.0625 40.125H56.1562L56.5938 38.8125L59.3906 31.1562L57.3125 30.8281V28.0938H65.5V30.8438L63.625 31.1562L58.2812 45H53.6406ZM74.5938 45.3281C72.9792 45.3281 71.5677 44.974 70.3594 44.2656C69.151 43.5469 68.2135 42.5625 67.5469 41.3125C66.8906 40.0625 66.5625 38.6354 66.5625 37.0312V36.4062C66.5625 34.7292 66.875 33.2448 67.5 31.9531C68.125 30.651 69.0052 29.6302 70.1406 28.8906C71.2865 28.151 72.6354 27.7812 74.1875 27.7812C75.7188 27.7812 77.0052 28.0833 78.0469 28.6875C79.0885 29.2917 79.8802 30.1615 80.4219 31.2969C80.9635 32.4323 81.2344 33.8073 81.2344 35.4219V37.9062H71.2969L71.2656 38C71.3281 38.7396 71.5104 39.401 71.8125 39.9844C72.125 40.5573 72.5625 41.0104 73.125 41.3438C73.6875 41.6667 74.3698 41.8281 75.1719 41.8281C76.0052 41.8281 76.7812 41.724 77.5 41.5156C78.2292 41.2969 78.9375 40.9792 79.625 40.5625L80.8594 43.375C80.1615 43.9375 79.2812 44.4062 78.2188 44.7812C77.1667 45.1458 75.9583 45.3281 74.5938 45.3281ZM71.3281 34.8906H76.9688V34.4844C76.9688 33.7969 76.875 33.2083 76.6875 32.7188C76.5104 32.2188 76.2188 31.8333 75.8125 31.5625C75.4167 31.2917 74.901 31.1562 74.2656 31.1562C73.6615 31.1562 73.151 31.3177 72.7344 31.6406C72.3177 31.9531 71.9896 32.3854 71.75 32.9375C71.5208 33.4896 71.3646 34.1146 71.2812 34.8125L71.3281 34.8906ZM83.6875 45V42.2656L85.875 41.7969V31.3125L83.4531 30.8438V28.0938H90.125L90.2969 30.1875L90.3281 30.5625C90.7448 29.6458 91.2604 28.9531 91.875 28.4844C92.4896 28.0156 93.224 27.7812 94.0781 27.7812C94.349 27.7812 94.6458 27.8073 94.9688 27.8594C95.2917 27.901 95.5781 27.9583 95.8281 28.0312L95.3438 32.2344L93.0781 32.1094C92.4323 32.0781 91.9062 32.1875 91.5 32.4375C91.1042 32.6875 90.75 33.0469 90.4375 33.5156V41.7969L92.625 42.2656V45H83.6875ZM97.0781 45V42.2656L99.5 41.7969V25.4688L97.0781 25V22.25H99.5H107.188C109.865 22.25 111.953 22.7708 113.453 23.8125C114.953 24.8542 115.703 26.4115 115.703 28.4844C115.703 29.5365 115.422 30.4792 114.859 31.3125C114.307 32.1354 113.5 32.7552 112.438 33.1719C113.344 33.3698 114.099 33.7188 114.703 34.2188C115.318 34.7188 115.776 35.3281 116.078 36.0469C116.38 36.7552 116.531 37.5312 116.531 38.375C116.531 40.5521 115.812 42.2031 114.375 43.3281C112.938 44.4427 110.901 45 108.266 45H97.0781ZM104.062 41.5H108.266C109.474 41.5 110.396 41.2396 111.031 40.7188C111.667 40.1875 111.984 39.4062 111.984 38.375C111.984 37.2604 111.714 36.4115 111.172 35.8281C110.63 35.2344 109.776 34.9375 108.609 34.9375H104.062V41.5ZM104.062 31.7812H107.344C108.562 31.7812 109.5 31.5312 110.156 31.0312C110.812 30.5312 111.141 29.8021 111.141 28.8438C111.141 27.7917 110.807 27.0156 110.141 26.5156C109.484 26.0156 108.5 25.7656 107.188 25.7656H104.062V31.7812ZM126.281 45.3281C124.667 45.3281 123.255 44.974 122.047 44.2656C120.839 43.5469 119.901 42.5625 119.234 41.3125C118.578 40.0625 118.25 38.6354 118.25 37.0312V36.4062C118.25 34.7292 118.562 33.2448 119.188 31.9531C119.812 30.651 120.693 29.6302 121.828 28.8906C122.974 28.151 124.323 27.7812 125.875 27.7812C127.406 27.7812 128.693 28.0833 129.734 28.6875C130.776 29.2917 131.568 30.1615 132.109 31.2969C132.651 32.4323 132.922 33.8073 132.922 35.4219V37.9062H122.984L122.953 38C123.016 38.7396 123.198 39.401 123.5 39.9844C123.812 40.5573 124.25 41.0104 124.812 41.3438C125.375 41.6667 126.057 41.8281 126.859 41.8281C127.693 41.8281 128.469 41.724 129.188 41.5156C129.917 41.2969 130.625 40.9792 131.312 40.5625L132.547 43.375C131.849 43.9375 130.969 44.4062 129.906 44.7812C128.854 45.1458 127.646 45.3281 126.281 45.3281ZM123.016 34.8906H128.656V34.4844C128.656 33.7969 128.562 33.2083 128.375 32.7188C128.198 32.2188 127.906 31.8333 127.5 31.5625C127.104 31.2917 126.589 31.1562 125.953 31.1562C125.349 31.1562 124.839 31.3177 124.422 31.6406C124.005 31.9531 123.677 32.3854 123.438 32.9375C123.208 33.4896 123.052 34.1146 122.969 34.8125L123.016 34.8906ZM141.531 45.3281C140.188 45.3281 139.031 44.9844 138.062 44.2969C137.104 43.599 136.37 42.6302 135.859 41.3906C135.349 40.1406 135.094 38.6823 135.094 37.0156V36.6875C135.094 34.9062 135.349 33.349 135.859 32.0156C136.38 30.6823 137.12 29.6458 138.078 28.9062C139.036 28.1562 140.182 27.7812 141.516 27.7812C142.443 27.7812 143.255 27.9688 143.953 28.3438C144.651 28.7083 145.255 29.2292 145.766 29.9062V23.8438L143.328 23.375V20.625H145.766H150.328V41.7969L152.516 42.2656V45H146.375L146.031 42.9375C145.5 43.7188 144.865 44.3125 144.125 44.7188C143.396 45.125 142.531 45.3281 141.531 45.3281ZM142.891 41.7812C143.526 41.7812 144.083 41.6458 144.562 41.375C145.042 41.1042 145.443 40.7135 145.766 40.2031V33.0312C145.453 32.4896 145.057 32.0729 144.578 31.7812C144.099 31.4792 143.547 31.3281 142.922 31.3281C142.161 31.3281 141.536 31.5573 141.047 32.0156C140.568 32.4635 140.214 33.0885 139.984 33.8906C139.766 34.6927 139.656 35.625 139.656 36.6875V37.0156C139.656 38.4948 139.906 39.6615 140.406 40.5156C140.906 41.3594 141.734 41.7812 142.891 41.7812Z"/>
</mask>
<path d="M14.8906 45V42.2656L17.3125 41.7969V25.4688L14.8906 25V22.25H25.6719C27.4219 22.25 28.9219 22.5208 30.1719 23.0625C31.4219 23.6042 32.3802 24.3802 33.0469 25.3906C33.724 26.401 34.0625 27.6146 34.0625 29.0312C34.0625 30.3646 33.7292 31.5573 33.0625 32.6094C32.3958 33.6615 31.4688 34.4896 30.2812 35.0938C29.0938 35.6979 27.724 36.0052 26.1719 36.0156H21.875V41.7969L24.3125 42.2656V45H14.8906ZM29.5312 45L25.7031 35.1719L29.8125 34.1562L33.125 41.8125L35.0625 42.2656V45H29.5312ZM21.875 32.5H25.5938C26.9062 32.5 27.8854 32.224 28.5312 31.6719C29.1875 31.1094 29.5156 30.2969 29.5156 29.2344C29.5156 28.1823 29.1927 27.3438 28.5469 26.7188C27.901 26.0833 26.9427 25.7656 25.6719 25.7656H21.875V32.5ZM36.8594 45V42.2656L39.0625 41.7969V31.3125L36.625 30.8438V28.0938H43.625V41.7969L45.8125 42.2656V45H36.8594ZM38.9062 24.5156V20.625H43.625V24.5156H38.9062ZM53.6406 45L48.5312 31.125L46.7031 30.8438V28.0938H54.9062V30.8281L53.125 31.1406L55.6719 38.8125L56.0625 40.125H56.1562L56.5938 38.8125L59.3906 31.1562L57.3125 30.8281V28.0938H65.5V30.8438L63.625 31.1562L58.2812 45H53.6406ZM74.5938 45.3281C72.9792 45.3281 71.5677 44.974 70.3594 44.2656C69.151 43.5469 68.2135 42.5625 67.5469 41.3125C66.8906 40.0625 66.5625 38.6354 66.5625 37.0312V36.4062C66.5625 34.7292 66.875 33.2448 67.5 31.9531C68.125 30.651 69.0052 29.6302 70.1406 28.8906C71.2865 28.151 72.6354 27.7812 74.1875 27.7812C75.7188 27.7812 77.0052 28.0833 78.0469 28.6875C79.0885 29.2917 79.8802 30.1615 80.4219 31.2969C80.9635 32.4323 81.2344 33.8073 81.2344 35.4219V37.9062H71.2969L71.2656 38C71.3281 38.7396 71.5104 39.401 71.8125 39.9844C72.125 40.5573 72.5625 41.0104 73.125 41.3438C73.6875 41.6667 74.3698 41.8281 75.1719 41.8281C76.0052 41.8281 76.7812 41.724 77.5 41.5156C78.2292 41.2969 78.9375 40.9792 79.625 40.5625L80.8594 43.375C80.1615 43.9375 79.2812 44.4062 78.2188 44.7812C77.1667 45.1458 75.9583 45.3281 74.5938 45.3281ZM71.3281 34.8906H76.9688V34.4844C76.9688 33.7969 76.875 33.2083 76.6875 32.7188C76.5104 32.2188 76.2188 31.8333 75.8125 31.5625C75.4167 31.2917 74.901 31.1562 74.2656 31.1562C73.6615 31.1562 73.151 31.3177 72.7344 31.6406C72.3177 31.9531 71.9896 32.3854 71.75 32.9375C71.5208 33.4896 71.3646 34.1146 71.2812 34.8125L71.3281 34.8906ZM83.6875 45V42.2656L85.875 41.7969V31.3125L83.4531 30.8438V28.0938H90.125L90.2969 30.1875L90.3281 30.5625C90.7448 29.6458 91.2604 28.9531 91.875 28.4844C92.4896 28.0156 93.224 27.7812 94.0781 27.7812C94.349 27.7812 94.6458 27.8073 94.9688 27.8594C95.2917 27.901 95.5781 27.9583 95.8281 28.0312L95.3438 32.2344L93.0781 32.1094C92.4323 32.0781 91.9062 32.1875 91.5 32.4375C91.1042 32.6875 90.75 33.0469 90.4375 33.5156V41.7969L92.625 42.2656V45H83.6875ZM97.0781 45V42.2656L99.5 41.7969V25.4688L97.0781 25V22.25H99.5H107.188C109.865 22.25 111.953 22.7708 113.453 23.8125C114.953 24.8542 115.703 26.4115 115.703 28.4844C115.703 29.5365 115.422 30.4792 114.859 31.3125C114.307 32.1354 113.5 32.7552 112.438 33.1719C113.344 33.3698 114.099 33.7188 114.703 34.2188C115.318 34.7188 115.776 35.3281 116.078 36.0469C116.38 36.7552 116.531 37.5312 116.531 38.375C116.531 40.5521 115.812 42.2031 114.375 43.3281C112.938 44.4427 110.901 45 108.266 45H97.0781ZM104.062 41.5H108.266C109.474 41.5 110.396 41.2396 111.031 40.7188C111.667 40.1875 111.984 39.4062 111.984 38.375C111.984 37.2604 111.714 36.4115 111.172 35.8281C110.63 35.2344 109.776 34.9375 108.609 34.9375H104.062V41.5ZM104.062 31.7812H107.344C108.562 31.7812 109.5 31.5312 110.156 31.0312C110.812 30.5312 111.141 29.8021 111.141 28.8438C111.141 27.7917 110.807 27.0156 110.141 26.5156C109.484 26.0156 108.5 25.7656 107.188 25.7656H104.062V31.7812ZM126.281 45.3281C124.667 45.3281 123.255 44.974 122.047 44.2656C120.839 43.5469 119.901 42.5625 119.234 41.3125C118.578 40.0625 118.25 38.6354 118.25 37.0312V36.4062C118.25 34.7292 118.562 33.2448 119.188 31.9531C119.812 30.651 120.693 29.6302 121.828 28.8906C122.974 28.151 124.323 27.7812 125.875 27.7812C127.406 27.7812 128.693 28.0833 129.734 28.6875C130.776 29.2917 131.568 30.1615 132.109 31.2969C132.651 32.4323 132.922 33.8073 132.922 35.4219V37.9062H122.984L122.953 38C123.016 38.7396 123.198 39.401 123.5 39.9844C123.812 40.5573 124.25 41.0104 124.812 41.3438C125.375 41.6667 126.057 41.8281 126.859 41.8281C127.693 41.8281 128.469 41.724 129.188 41.5156C129.917 41.2969 130.625 40.9792 131.312 40.5625L132.547 43.375C131.849 43.9375 130.969 44.4062 129.906 44.7812C128.854 45.1458 127.646 45.3281 126.281 45.3281ZM123.016 34.8906H128.656V34.4844C128.656 33.7969 128.562 33.2083 128.375 32.7188C128.198 32.2188 127.906 31.8333 127.5 31.5625C127.104 31.2917 126.589 31.1562 125.953 31.1562C125.349 31.1562 124.839 31.3177 124.422 31.6406C124.005 31.9531 123.677 32.3854 123.438 32.9375C123.208 33.4896 123.052 34.1146 122.969 34.8125L123.016 34.8906ZM141.531 45.3281C140.188 45.3281 139.031 44.9844 138.062 44.2969C137.104 43.599 136.37 42.6302 135.859 41.3906C135.349 40.1406 135.094 38.6823 135.094 37.0156V36.6875C135.094 34.9062 135.349 33.349 135.859 32.0156C136.38 30.6823 137.12 29.6458 138.078 28.9062C139.036 28.1562 140.182 27.7812 141.516 27.7812C142.443 27.7812 143.255 27.9688 143.953 28.3438C144.651 28.7083 145.255 29.2292 145.766 29.9062V23.8438L143.328 23.375V20.625H145.766H150.328V41.7969L152.516 42.2656V45H146.375L146.031 42.9375C145.5 43.7188 144.865 44.3125 144.125 44.7188C143.396 45.125 142.531 45.3281 141.531 45.3281ZM142.891 41.7812C143.526 41.7812 144.083 41.6458 144.562 41.375C145.042 41.1042 145.443 40.7135 145.766 40.2031V33.0312C145.453 32.4896 145.057 32.0729 144.578 31.7812C144.099 31.4792 143.547 31.3281 142.922 31.3281C142.161 31.3281 141.536 31.5573 141.047 32.0156C140.568 32.4635 140.214 33.0885 139.984 33.8906C139.766 34.6927 139.656 35.625 139.656 36.6875V37.0156C139.656 38.4948 139.906 39.6615 140.406 40.5156C140.906 41.3594 141.734 41.7812 142.891 41.7812Z" fill="#00296B"/>
<path d="M14.8906 45H6.89062C6.89062 49.4183 10.4723 53 14.8906 53V45ZM14.8906 42.2656L13.3705 34.4114C9.60813 35.1396 6.89062 38.4335 6.89062 42.2656H14.8906ZM17.3125 41.7969L18.8327 49.6511C22.595 48.9229 25.3125 45.629 25.3125 41.7969H17.3125ZM17.3125 25.4688H25.3125C25.3125 21.6366 22.595 18.3427 18.8327 17.6145L17.3125 25.4688ZM14.8906 25H6.89062C6.89062 28.8321 9.60813 32.126 13.3705 32.8542L14.8906 25ZM14.8906 22.25V14.25C10.4723 14.25 6.89062 17.8317 6.89062 22.25H14.8906ZM33.0469 25.3906L26.3694 29.7964C26.3799 29.8123 26.3904 29.8282 26.401 29.844L33.0469 25.3906ZM26.1719 36.0156V44.0156C26.1898 44.0156 26.2077 44.0156 26.2256 44.0154L26.1719 36.0156ZM21.875 36.0156V28.0156C17.4567 28.0156 13.875 31.5973 13.875 36.0156H21.875ZM21.875 41.7969H13.875C13.875 45.6326 16.5975 48.9286 20.3642 49.6529L21.875 41.7969ZM24.3125 42.2656H32.3125C32.3125 38.4299 29.59 35.1339 25.8233 34.4096L24.3125 42.2656ZM24.3125 45V53C28.7308 53 32.3125 49.4183 32.3125 45H24.3125ZM29.5312 45L22.0768 47.9036C23.2737 50.9764 26.2335 53 29.5312 53V45ZM25.7031 35.1719L23.7837 27.4056C21.5496 27.9577 19.6615 29.4452 18.6018 31.488C17.5421 33.5308 17.4134 35.9311 18.2486 38.0754L25.7031 35.1719ZM29.8125 34.1562L37.1548 30.9796C35.603 27.3929 31.6869 25.4523 27.8931 26.3899L29.8125 34.1562ZM33.125 41.8125L25.7827 44.9892C26.7887 47.3142 28.8364 49.0254 31.3032 49.6023L33.125 41.8125ZM35.0625 42.2656H43.0625C43.0625 38.5492 40.5031 35.3222 36.8843 34.4758L35.0625 42.2656ZM35.0625 45V53C39.4808 53 43.0625 49.4183 43.0625 45H35.0625ZM21.875 32.5H13.875C13.875 36.9183 17.4567 40.5 21.875 40.5V32.5ZM28.5312 31.6719L33.7295 37.7529L33.7376 37.7459L28.5312 31.6719ZM28.5469 26.7188L22.9362 32.4214C22.9519 32.4369 22.9677 32.4522 22.9835 32.4676L28.5469 26.7188ZM21.875 25.7656V17.7656C17.4567 17.7656 13.875 21.3473 13.875 25.7656H21.875ZM22.8906 45V42.2656H6.89062V45H22.8906ZM16.4108 50.1199L18.8327 49.6511L15.7923 33.9426L13.3705 34.4114L16.4108 50.1199ZM25.3125 41.7969V25.4688H9.3125V41.7969H25.3125ZM18.8327 17.6145L16.4108 17.1458L13.3705 32.8542L15.7923 33.323L18.8327 17.6145ZM22.8906 25V22.25H6.89062V25H22.8906ZM14.8906 30.25H25.6719V14.25H14.8906V30.25ZM25.6719 30.25C26.6264 30.25 26.987 30.4012 26.991 30.4029L33.3527 15.7221C30.8567 14.6404 28.2173 14.25 25.6719 14.25V30.25ZM26.991 30.4029C27.0189 30.415 26.934 30.3817 26.7936 30.268C26.6475 30.1497 26.4961 29.9885 26.3694 29.7964L39.7244 20.9848C38.0975 18.5191 35.844 16.8016 33.3527 15.7221L26.991 30.4029ZM26.401 29.844C26.2492 29.6174 26.1539 29.3912 26.1028 29.2083C26.0543 29.0345 26.0625 28.9607 26.0625 29.0312H42.0625C42.0625 26.2964 41.3907 23.4712 39.6927 20.9372L26.401 29.844ZM26.0625 29.0312C26.0625 29.0319 26.0625 29.0306 26.0625 29.0312C26.0625 29.0319 26.0625 29.0306 26.0625 29.0312C26.0625 29.0312 26.0625 29.0312 26.0625 29.0312C26.0625 29.0311 26.0625 29.031 26.0625 29.0309C26.0625 29.0307 26.0625 29.0304 26.0625 29.03C26.0625 29.0292 26.0626 29.028 26.0626 29.0264C26.0627 29.0232 26.0629 29.0184 26.0633 29.0122C26.0641 28.9996 26.0657 28.9815 26.0688 28.9583C26.075 28.911 26.0867 28.8477 26.1077 28.7725C26.1525 28.6125 26.2228 28.457 26.305 28.3274L39.82 36.8914C41.356 34.4674 42.0625 31.7692 42.0625 29.0312H26.0625ZM26.305 28.3274C26.3667 28.2299 26.4486 28.1329 26.5377 28.0532C26.6244 27.9758 26.6762 27.952 26.6536 27.9635L33.9089 42.224C36.2839 41.0157 38.3309 39.2415 39.82 36.8914L26.305 28.3274ZM26.6536 27.9635C26.6857 27.9472 26.6807 27.956 26.6121 27.9714C26.5395 27.9876 26.3824 28.014 26.1182 28.0158L26.2256 44.0154C28.8156 43.9981 31.4447 43.4777 33.9089 42.224L26.6536 27.9635ZM26.1719 28.0156H21.875V44.0156H26.1719V28.0156ZM13.875 36.0156V41.7969H29.875V36.0156H13.875ZM20.3642 49.6529L22.8017 50.1217L25.8233 34.4096L23.3858 33.9408L20.3642 49.6529ZM16.3125 42.2656V45H32.3125V42.2656H16.3125ZM24.3125 37H14.8906V53H24.3125V37ZM36.9857 42.0964L33.1576 32.2683L18.2486 38.0754L22.0768 47.9036L36.9857 42.0964ZM27.6226 42.9382L31.7319 41.9226L27.8931 26.3899L23.7837 27.4056L27.6226 42.9382ZM22.4702 37.3329L25.7827 44.9892L40.4673 38.6358L37.1548 30.9796L22.4702 37.3329ZM31.3032 49.6023L33.2407 50.0554L36.8843 34.4758L34.9468 34.0227L31.3032 49.6023ZM27.0625 42.2656V45H43.0625V42.2656H27.0625ZM35.0625 37H29.5312V53H35.0625V37ZM21.875 40.5H25.5938V24.5H21.875V40.5ZM25.5938 40.5C27.8208 40.5 31.0267 40.0633 33.7295 37.7528L23.333 25.5909C24.0466 24.9809 24.7336 24.7082 25.1418 24.5931C25.5286 24.484 25.7166 24.5 25.5938 24.5V40.5ZM33.7376 37.7459C36.5665 35.3211 37.5156 32.049 37.5156 29.2344H21.5156C21.5156 28.9515 21.5589 28.3696 21.8516 27.6449C22.1606 26.8798 22.666 26.1626 23.3249 25.5978L33.7376 37.7459ZM37.5156 29.2344C37.5156 26.416 36.5798 23.3598 34.1102 20.9699L22.9835 32.4676C22.4713 31.9718 22.0642 31.3571 21.8079 30.6913C21.5613 30.051 21.5156 29.5264 21.5156 29.2344H37.5156ZM34.1576 21.0161C31.4999 18.4013 28.1868 17.7656 25.6719 17.7656V33.7656C25.663 33.7656 25.3379 33.7671 24.8263 33.5975C24.2776 33.4156 23.5816 33.0564 22.9362 32.4214L34.1576 21.0161ZM25.6719 17.7656H21.875V33.7656H25.6719V17.7656ZM13.875 25.7656V32.5H29.875V25.7656H13.875ZM36.8594 45H28.8594C28.8594 49.4183 32.4411 53 36.8594 53V45ZM36.8594 42.2656L35.1945 34.4408C31.5005 35.2267 28.8594 38.489 28.8594 42.2656H36.8594ZM39.0625 41.7969L40.7274 49.6217C44.4213 48.8358 47.0625 45.5735 47.0625 41.7969H39.0625ZM39.0625 31.3125H47.0625C47.0625 27.4768 44.34 24.1808 40.5733 23.4564L39.0625 31.3125ZM36.625 30.8438H28.625C28.625 34.6795 31.3475 37.9754 35.1142 38.6998L36.625 30.8438ZM36.625 28.0938V20.0938C32.2067 20.0938 28.625 23.6755 28.625 28.0938H36.625ZM43.625 28.0938H51.625C51.625 23.6755 48.0433 20.0938 43.625 20.0938V28.0938ZM43.625 41.7969H35.625C35.625 45.5692 38.2602 48.8289 41.9488 49.6193L43.625 41.7969ZM45.8125 42.2656H53.8125C53.8125 38.4933 51.1773 35.2336 47.4887 34.4432L45.8125 42.2656ZM45.8125 45V53C50.2308 53 53.8125 49.4183 53.8125 45H45.8125ZM38.9062 24.5156H30.9062C30.9062 28.9339 34.488 32.5156 38.9062 32.5156V24.5156ZM38.9062 20.625V12.625C34.488 12.625 30.9062 16.2067 30.9062 20.625H38.9062ZM43.625 20.625H51.625C51.625 16.2067 48.0433 12.625 43.625 12.625V20.625ZM43.625 24.5156V32.5156C48.0433 32.5156 51.625 28.9339 51.625 24.5156H43.625ZM44.8594 45V42.2656H28.8594V45H44.8594ZM38.5242 50.0905L40.7274 49.6217L37.3976 33.972L35.1945 34.4408L38.5242 50.0905ZM47.0625 41.7969V31.3125H31.0625V41.7969H47.0625ZM40.5733 23.4564L38.1358 22.9877L35.1142 38.6998L37.5517 39.1686L40.5733 23.4564ZM44.625 30.8438V28.0938H28.625V30.8438H44.625ZM36.625 36.0938H43.625V20.0938H36.625V36.0938ZM35.625 28.0938V41.7969H51.625V28.0938H35.625ZM41.9488 49.6193L44.1363 50.088L47.4887 34.4432L45.3012 33.9745L41.9488 49.6193ZM37.8125 42.2656V45H53.8125V42.2656H37.8125ZM45.8125 37H36.8594V53H45.8125V37ZM46.9062 24.5156V20.625H30.9062V24.5156H46.9062ZM38.9062 28.625H43.625V12.625H38.9062V28.625ZM35.625 20.625V24.5156H51.625V20.625H35.625ZM43.625 16.5156H38.9062V32.5156H43.625V16.5156ZM53.6406 45L46.1334 47.7645C47.2918 50.9101 50.2885 53 53.6406 53V45ZM48.5312 31.125L56.0384 28.3605C55.0329 25.6298 52.6238 23.6605 49.7477 23.218L48.5312 31.125ZM46.7031 30.8438H38.7031C38.7031 34.7923 41.584 38.1503 45.4867 38.7507L46.7031 30.8438ZM46.7031 28.0938V20.0938C42.2848 20.0938 38.7031 23.6755 38.7031 28.0938H46.7031ZM54.9062 28.0938H62.9062C62.9062 23.6755 59.3245 20.0938 54.9062 20.0938V28.0938ZM54.9062 30.8281L56.2886 38.7078C60.1152 38.0365 62.9062 34.7131 62.9062 30.8281H54.9062ZM53.125 31.1406L51.7426 23.261C49.4515 23.6629 47.4489 25.0421 46.2563 27.0392C45.0638 29.0363 44.7996 31.4536 45.5324 33.6612L53.125 31.1406ZM55.6719 38.8125L63.3395 36.5305C63.3157 36.4506 63.2907 36.3711 63.2644 36.292L55.6719 38.8125ZM56.0625 40.125L48.3949 42.407C49.4045 45.7993 52.5232 48.125 56.0625 48.125V40.125ZM56.1562 40.125V48.125C59.5997 48.125 62.6568 45.9216 63.7457 42.6548L56.1562 40.125ZM56.5938 38.8125L49.0794 36.0675C49.0534 36.1388 49.0283 36.2106 49.0043 36.2827L56.5938 38.8125ZM59.3906 31.1562L66.9049 33.9013C67.7255 31.655 67.4981 29.1594 66.2851 27.0984C65.072 25.0374 63.0005 23.6271 60.6383 23.2541L59.3906 31.1562ZM57.3125 30.8281H49.3125C49.3125 34.7647 52.1764 38.1163 56.0648 38.7302L57.3125 30.8281ZM57.3125 28.0938V20.0938C52.8942 20.0938 49.3125 23.6755 49.3125 28.0938H57.3125ZM65.5 28.0938H73.5C73.5 23.6755 69.9183 20.0938 65.5 20.0938V28.0938ZM65.5 30.8438L66.8152 38.7349C70.6727 38.092 73.5 34.7545 73.5 30.8438H65.5ZM63.625 31.1562L62.3098 23.2651C59.5186 23.7303 57.1807 25.6355 56.1617 28.2754L63.625 31.1562ZM58.2812 45V53C61.5879 53 64.5538 50.9657 65.7445 47.8809L58.2812 45ZM61.1478 42.2355L56.0384 28.3605L41.0241 33.8895L46.1334 47.7645L61.1478 42.2355ZM49.7477 23.218L47.9196 22.9368L45.4867 38.7507L47.3148 39.032L49.7477 23.218ZM54.7031 30.8438V28.0938H38.7031V30.8438H54.7031ZM46.7031 36.0938H54.9062V20.0938H46.7031V36.0938ZM46.9062 28.0938V30.8281H62.9062V28.0938H46.9062ZM53.5239 22.9485L51.7426 23.261L54.5074 39.0203L56.2886 38.7078L53.5239 22.9485ZM45.5324 33.6612L48.0793 41.333L63.2644 36.292L60.7176 28.6201L45.5324 33.6612ZM48.0043 41.0945L48.3949 42.407L63.7301 37.843L63.3395 36.5305L48.0043 41.0945ZM56.0625 48.125H56.1562V32.125H56.0625V48.125ZM63.7457 42.6548L64.1832 41.3423L49.0043 36.2827L48.5668 37.5952L63.7457 42.6548ZM64.1081 41.5575L66.9049 33.9013L51.8763 28.4112L49.0794 36.0675L64.1081 41.5575ZM60.6383 23.2541L58.5602 22.926L56.0648 38.7302L58.1429 39.0584L60.6383 23.2541ZM65.3125 30.8281V28.0938H49.3125V30.8281H65.3125ZM57.3125 36.0938H65.5V20.0938H57.3125V36.0938ZM57.5 28.0938V30.8438H73.5V28.0938H57.5ZM64.1848 22.9526L62.3098 23.2651L64.9402 39.0474L66.8152 38.7349L64.1848 22.9526ZM56.1617 28.2754L50.818 42.1191L65.7445 47.8809L71.0883 34.0371L56.1617 28.2754ZM58.2812 37H53.6406V53H58.2812V37ZM70.3594 44.2656L66.2696 51.1412C66.2842 51.1499 66.2989 51.1586 66.3136 51.1672L70.3594 44.2656ZM67.5469 41.3125L60.4637 45.0312C60.4718 45.0465 60.4799 45.0619 60.4881 45.0772L67.5469 41.3125ZM67.5 31.9531L74.7013 35.4376C74.7049 35.4301 74.7086 35.4225 74.7122 35.415L67.5 31.9531ZM70.1406 28.8906L65.8022 22.1692C65.7929 22.1752 65.7836 22.1812 65.7742 22.1873L70.1406 28.8906ZM78.0469 28.6875L74.0331 35.6077L78.0469 28.6875ZM81.2344 37.9062V45.9062C85.6527 45.9062 89.2344 42.3245 89.2344 37.9062H81.2344ZM71.2969 37.9062V29.9062C67.8534 29.9062 64.7963 32.1097 63.7074 35.3764L71.2969 37.9062ZM71.2656 38L63.6762 35.4702C63.3326 36.501 63.2025 37.591 63.294 38.6737L71.2656 38ZM71.8125 39.9844L64.7085 43.6632C64.7349 43.7142 64.7619 43.7648 64.7893 43.8152L71.8125 39.9844ZM73.125 41.3438L69.0466 48.2261C69.0783 48.2449 69.1101 48.2634 69.1421 48.2818L73.125 41.3438ZM77.5 41.5156L79.7272 49.1994C79.7511 49.1924 79.7749 49.1854 79.7988 49.1782L77.5 41.5156ZM79.625 40.5625L86.9505 37.3474C86.0244 35.2374 84.2335 33.6291 82.0363 32.9346C79.8392 32.24 77.4492 32.5266 75.4786 33.7209L79.625 40.5625ZM80.8594 43.375L85.8796 49.6038C88.6918 47.3372 89.6365 43.4673 88.1849 40.1599L80.8594 43.375ZM78.2188 44.7812L80.8382 52.3402C80.8526 52.3353 80.867 52.3302 80.8813 52.3252L78.2188 44.7812ZM71.3281 34.8906L64.4682 39.0066C65.914 41.4162 68.518 42.8906 71.3281 42.8906V34.8906ZM76.9688 34.8906V42.8906C81.387 42.8906 84.9688 39.3089 84.9688 34.8906H76.9688ZM76.6875 32.7188L69.1465 35.3895C69.1691 35.4533 69.1925 35.5168 69.2166 35.5799L76.6875 32.7188ZM75.8125 31.5625L71.295 38.165C71.3215 38.1831 71.3482 38.2011 71.3749 38.2189L75.8125 31.5625ZM72.7344 31.6406L77.5344 38.0406C77.5681 38.0153 77.6016 37.9898 77.6349 37.9639L72.7344 31.6406ZM71.75 32.9375L64.4112 29.7528C64.3943 29.7919 64.3776 29.8311 64.3613 29.8705L71.75 32.9375ZM71.2812 34.8125L63.3377 33.864C63.1273 35.6256 63.5085 37.4072 64.4213 38.9285L71.2812 34.8125ZM74.5938 37.3281C74.3722 37.3281 74.2752 37.304 74.2712 37.303C74.2686 37.3024 74.2831 37.3059 74.3104 37.317C74.3379 37.3281 74.3706 37.3438 74.4051 37.364L66.3136 51.1672C68.9261 52.6986 71.7773 53.3281 74.5938 53.3281V37.3281ZM74.4492 37.39C74.4468 37.3887 74.4577 37.395 74.4773 37.4106C74.4971 37.4263 74.52 37.4468 74.5431 37.471C74.5662 37.4953 74.5841 37.5176 74.5962 37.5345C74.6083 37.5513 74.6107 37.5573 74.6057 37.5478L60.4881 45.0772C61.8364 47.6053 63.7961 49.6699 66.2696 51.1412L74.4492 37.39ZM74.6301 37.5938C74.6299 37.5936 74.6295 37.5928 74.6288 37.5911C74.628 37.5894 74.6266 37.5862 74.6247 37.5809C74.621 37.5709 74.6137 37.5491 74.6052 37.512C74.5884 37.4393 74.5625 37.2868 74.5625 37.0312H58.5625C58.5625 39.7527 59.1275 42.4861 60.4637 45.0312L74.6301 37.5938ZM74.5625 37.0312V36.4062H58.5625V37.0312H74.5625ZM74.5625 36.4062C74.5625 35.7333 74.6836 35.4741 74.7013 35.4376L60.2987 28.4686C59.0664 31.0155 58.5625 33.725 58.5625 36.4062H74.5625ZM74.7122 35.415C74.7413 35.3544 74.7397 35.3747 74.6877 35.4351C74.6633 35.4633 74.6335 35.4937 74.5994 35.5235C74.5654 35.5532 74.5334 35.5768 74.507 35.594L65.7742 22.1873C63.3298 23.7795 61.5033 25.9591 60.2878 28.4913L74.7122 35.415ZM74.479 35.6121C74.4182 35.6513 74.3536 35.6862 74.2886 35.7151C74.2238 35.744 74.1681 35.7626 74.1267 35.7739C74.0414 35.7973 74.0488 35.7812 74.1875 35.7812V19.7812C71.3148 19.7812 68.4131 20.4839 65.8022 22.1692L74.479 35.6121ZM74.1875 35.7812C74.4322 35.7812 74.5139 35.8058 74.472 35.796C74.4222 35.7843 74.2567 35.7374 74.0331 35.6077L82.0606 21.7673C79.5107 20.2883 76.7521 19.7812 74.1875 19.7812V35.7812ZM74.0331 35.6077C73.862 35.5085 73.6747 35.3637 73.5056 35.1779C73.3386 34.9944 73.2445 34.8318 73.2014 34.7415L87.6423 27.8523C86.4393 25.3305 84.5616 23.2178 82.0606 21.7673L74.0331 35.6077ZM73.2014 34.7415C73.1059 34.5411 73.2344 34.6731 73.2344 35.4219H89.2344C89.2344 32.9415 88.8212 30.3235 87.6423 27.8523L73.2014 34.7415ZM73.2344 35.4219V37.9062H89.2344V35.4219H73.2344ZM81.2344 29.9062H71.2969V45.9062H81.2344V29.9062ZM63.7074 35.3764L63.6762 35.4702L78.8551 40.5298L78.8863 40.4361L63.7074 35.3764ZM63.294 38.6737C63.4337 40.3266 63.8634 42.0312 64.7085 43.6632L78.9165 36.3055C79.1574 36.7709 79.2225 37.1526 79.2372 37.3263L63.294 38.6737ZM64.7893 43.8152C65.7924 45.6542 67.2484 47.1605 69.0466 48.2261L77.2034 34.4614C77.8766 34.8604 78.4576 35.4604 78.8357 36.1536L64.7893 43.8152ZM69.1421 48.2818C71.1723 49.4473 73.2999 49.8281 75.1719 49.8281V33.8281C75.4397 33.8281 76.2027 33.886 77.1079 34.4057L69.1421 48.2818ZM75.1719 49.8281C76.6744 49.8281 78.2078 49.6398 79.7272 49.1994L75.2728 33.8319C75.3116 33.8207 75.3276 33.8194 75.3146 33.8211C75.3011 33.8229 75.2552 33.8281 75.1719 33.8281V49.8281ZM79.7988 49.1782C81.2113 48.7545 82.5376 48.1519 83.7714 47.4041L75.4786 33.7209C75.3374 33.8065 75.247 33.8393 75.2012 33.853L79.7988 49.1782ZM72.2995 43.7776L73.5339 46.5901L88.1849 40.1599L86.9505 37.3474L72.2995 43.7776ZM75.8392 37.1462C75.924 37.0779 75.9593 37.0639 75.9154 37.0873C75.8706 37.1112 75.7576 37.1663 75.5562 37.2373L80.8813 52.3252C82.5883 51.7227 84.3211 50.8599 85.8796 49.6038L75.8392 37.1462ZM75.5993 37.2223C75.5552 37.2375 75.2606 37.3281 74.5938 37.3281V53.3281C76.6561 53.3281 78.7781 53.0541 80.8382 52.3402L75.5993 37.2223ZM71.3281 42.8906H76.9688V26.8906H71.3281V42.8906ZM84.9688 34.8906V34.4844H68.9688V34.8906H84.9688ZM84.9688 34.4844C84.9688 33.1072 84.7858 31.4958 84.1584 29.8576L69.2166 35.5799C68.9642 34.9208 68.9688 34.4866 68.9688 34.4844H84.9688ZM84.2285 30.048C83.5273 28.0681 82.2203 26.2196 80.2501 24.9061L71.3749 38.2189C70.2172 37.4471 69.4935 36.3694 69.1465 35.3895L84.2285 30.048ZM80.33 24.96C78.2334 23.5255 75.9974 23.1562 74.2656 23.1562V39.1562C73.8046 39.1562 72.6 39.0578 71.295 38.165L80.33 24.96ZM74.2656 23.1562C72.1587 23.1562 69.8533 23.7522 67.8338 25.3173L77.6349 37.9639C76.4488 38.8832 75.1643 39.1562 74.2656 39.1562V23.1562ZM67.9344 25.2406C66.2442 26.5083 65.1167 28.1271 64.4112 29.7528L79.0888 36.1222C78.8625 36.6437 78.3913 37.398 77.5344 38.0406L67.9344 25.2406ZM64.3613 29.8705C63.8067 31.2065 63.4931 32.562 63.3377 33.864L79.2248 35.761C79.236 35.6671 79.235 35.7726 79.1387 36.0045L64.3613 29.8705ZM64.4213 38.9285L64.4682 39.0066L78.1881 30.7747L78.1412 30.6965L64.4213 38.9285ZM83.6875 45H75.6875C75.6875 49.4183 79.2692 53 83.6875 53V45ZM83.6875 42.2656L82.0113 34.4432C78.3227 35.2336 75.6875 38.4933 75.6875 42.2656H83.6875ZM85.875 41.7969L87.5512 49.6193C91.2398 48.8289 93.875 45.5692 93.875 41.7969H85.875ZM85.875 31.3125H93.875C93.875 27.4804 91.1575 24.1865 87.3952 23.4583L85.875 31.3125ZM83.4531 30.8438H75.4531C75.4531 34.6759 78.1706 37.9698 81.933 38.698L83.4531 30.8438ZM83.4531 28.0938V20.0938C79.0348 20.0938 75.4531 23.6755 75.4531 28.0938H83.4531ZM90.125 28.0938L98.0982 27.4392C97.7575 23.2887 94.2895 20.0938 90.125 20.0938V28.0938ZM90.2969 30.1875L82.3237 30.842L82.3245 30.8519L90.2969 30.1875ZM90.3281 30.5625L82.3558 31.2269C82.6582 34.8557 85.3731 37.8225 88.9609 38.4448C92.5488 39.0671 96.1042 37.188 97.6111 33.8729L90.3281 30.5625ZM94.9688 27.8594L93.6949 35.7573C93.7781 35.7707 93.8614 35.7828 93.945 35.7936L94.9688 27.8594ZM95.8281 28.0312L103.776 28.9471C104.222 25.0739 101.811 21.4429 98.0681 20.3512L95.8281 28.0312ZM95.3438 32.2344L94.903 40.2222C99.1298 40.4554 102.807 37.3556 103.291 33.1502L95.3438 32.2344ZM93.0781 32.1094L93.5188 24.1215C93.5008 24.1205 93.4828 24.1196 93.4648 24.1187L93.0781 32.1094ZM91.5 32.4375L87.3072 25.6242C87.2807 25.6405 87.2543 25.657 87.2281 25.6736L91.5 32.4375ZM90.4375 33.5156L83.7811 29.078C82.905 30.3922 82.4375 31.9362 82.4375 33.5156H90.4375ZM90.4375 41.7969H82.4375C82.4375 45.5692 85.0727 48.8289 88.7613 49.6193L90.4375 41.7969ZM92.625 42.2656H100.625C100.625 38.4933 97.9898 35.2336 94.3012 34.4432L92.625 42.2656ZM92.625 45V53C97.0433 53 100.625 49.4183 100.625 45H92.625ZM91.6875 45V42.2656H75.6875V45H91.6875ZM85.3637 50.088L87.5512 49.6193L84.1988 33.9745L82.0113 34.4432L85.3637 50.088ZM93.875 41.7969V31.3125H77.875V41.7969H93.875ZM87.3952 23.4583L84.9733 22.9895L81.933 38.698L84.3548 39.1667L87.3952 23.4583ZM91.4531 30.8438V28.0938H75.4531V30.8438H91.4531ZM83.4531 36.0938H90.125V20.0938H83.4531V36.0938ZM82.1518 28.7483L82.3237 30.842L98.2701 29.533L98.0982 27.4392L82.1518 28.7483ZM82.3245 30.8519L82.3558 31.2269L98.3005 29.8981L98.2692 29.5231L82.3245 30.8519ZM97.6111 33.8729C97.6416 33.8057 97.4316 34.3076 96.7266 34.8454L87.0234 22.1234C85.0892 23.5986 83.848 25.486 83.0452 27.2521L97.6111 33.8729ZM96.7266 34.8454C96.3076 35.165 95.8269 35.4162 95.319 35.5783C94.8199 35.7376 94.3881 35.7812 94.0781 35.7812V19.7812C91.6654 19.7812 89.1791 20.4792 87.0234 22.1234L96.7266 34.8454ZM94.0781 35.7812C93.8454 35.7812 93.7098 35.7597 93.6949 35.7573L96.2426 19.9614C95.5819 19.8549 94.8525 19.7812 94.0781 19.7812V35.7812ZM93.945 35.7936C93.9441 35.7935 93.9133 35.7895 93.8568 35.7782C93.8008 35.767 93.709 35.7465 93.5881 35.7113L98.0681 20.3512C97.3359 20.1377 96.6298 20.0074 95.9925 19.9252L93.945 35.7936ZM87.8807 27.1154L87.3963 31.3185L103.291 33.1502L103.776 28.9471L87.8807 27.1154ZM95.7845 24.2465L93.5188 24.1215L92.6374 40.0972L94.903 40.2222L95.7845 24.2465ZM93.4648 24.1187C91.768 24.0366 89.4965 24.277 87.3072 25.6242L95.6928 39.2508C94.316 40.098 93.0966 40.1196 92.6915 40.1L93.4648 24.1187ZM87.2281 25.6736C85.7102 26.6322 84.5921 27.8616 83.7811 29.078L97.0939 37.9532C96.9079 38.2322 96.4981 38.7428 95.7719 39.2014L87.2281 25.6736ZM82.4375 33.5156V41.7969H98.4375V33.5156H82.4375ZM88.7613 49.6193L90.9488 50.088L94.3012 34.4432L92.1137 33.9745L88.7613 49.6193ZM84.625 42.2656V45H100.625V42.2656H84.625ZM92.625 37H83.6875V53H92.625V37ZM97.0781 45H89.0781C89.0781 49.4183 92.6598 53 97.0781 53V45ZM97.0781 42.2656L95.558 34.4114C91.7956 35.1396 89.0781 38.4335 89.0781 42.2656H97.0781ZM99.5 41.7969L101.02 49.6511C104.782 48.9229 107.5 45.629 107.5 41.7969H99.5ZM99.5 25.4688H107.5C107.5 21.6366 104.782 18.3427 101.02 17.6145L99.5 25.4688ZM97.0781 25H89.0781C89.0781 28.8321 91.7956 32.126 95.558 32.8542L97.0781 25ZM97.0781 22.25V14.25C92.6598 14.25 89.0781 17.8317 89.0781 22.25H97.0781ZM114.859 31.3125L108.229 26.8367C108.224 26.843 108.22 26.8492 108.216 26.8555L114.859 31.3125ZM112.438 33.1719L109.517 25.7241C106.236 27.0107 104.183 30.2929 104.463 33.8061C104.742 37.3192 107.288 40.2357 110.731 40.9877L112.438 33.1719ZM114.703 34.2188L109.603 40.3819C109.62 40.3962 109.637 40.4103 109.654 40.4244L114.703 34.2188ZM116.078 36.0469L108.703 39.1466C108.708 39.1594 108.714 39.1723 108.719 39.1852L116.078 36.0469ZM114.375 43.3281L119.277 49.6503C119.287 49.643 119.296 49.6356 119.305 49.6282L114.375 43.3281ZM104.062 41.5H96.0625C96.0625 45.9183 99.6442 49.5 104.062 49.5V41.5ZM111.031 40.7188L116.103 46.9059C116.123 46.8894 116.143 46.8729 116.163 46.8563L111.031 40.7188ZM111.172 35.8281L105.262 41.2198C105.278 41.2372 105.294 41.2545 105.31 41.2717L111.172 35.8281ZM104.062 34.9375V26.9375C99.6442 26.9375 96.0625 30.5192 96.0625 34.9375H104.062ZM104.062 31.7812H96.0625C96.0625 36.1995 99.6442 39.7812 104.062 39.7812V31.7812ZM110.141 26.5156L105.292 32.8791C105.308 32.8913 105.324 32.9035 105.341 32.9156L110.141 26.5156ZM104.062 25.7656V17.7656C99.6442 17.7656 96.0625 21.3473 96.0625 25.7656H104.062ZM105.078 45V42.2656H89.0781V45H105.078ZM98.5983 50.1199L101.02 49.6511L97.9798 33.9426L95.558 34.4114L98.5983 50.1199ZM107.5 41.7969V25.4688H91.5V41.7969H107.5ZM101.02 17.6145L98.5983 17.1458L95.558 32.8542L97.9798 33.323L101.02 17.6145ZM105.078 25V22.25H89.0781V25H105.078ZM97.0781 30.25H99.5V14.25H97.0781V30.25ZM99.5 30.25H107.188V14.25H99.5V30.25ZM107.188 30.25C108.025 30.25 108.546 30.3332 108.826 30.4029C109.094 30.4698 109.065 30.5048 108.89 30.3835L118.016 17.2415C114.685 14.9284 110.773 14.25 107.188 14.25V30.25ZM108.89 30.3835C108.572 30.1628 108.191 29.7694 107.933 29.233C107.693 28.7342 107.703 28.4134 107.703 28.4844H123.703C123.703 24.2011 121.986 19.9982 118.016 17.2415L108.89 30.3835ZM107.703 28.4844C107.703 28.2896 107.73 28.0139 107.826 27.6933C107.923 27.3697 108.066 27.0779 108.229 26.8367L121.49 35.7883C122.988 33.5695 123.703 31.0532 123.703 28.4844H107.703ZM108.216 26.8555C108.437 26.5259 108.701 26.2537 108.968 26.049C109.227 25.8502 109.433 25.7571 109.517 25.7241L115.358 40.6197C117.7 39.7014 119.911 38.1424 121.503 35.7695L108.216 26.8555ZM110.731 40.9877C110.617 40.9629 110.146 40.8319 109.603 40.3819L119.804 28.0556C118.052 26.6056 116.07 25.7767 114.144 25.3561L110.731 40.9877ZM109.654 40.4244C109.268 40.1097 108.918 39.6587 108.703 39.1466L123.453 32.9472C122.634 30.9976 121.368 29.3278 119.752 28.0131L109.654 40.4244ZM108.719 39.1852C108.559 38.81 108.531 38.506 108.531 38.375H124.531C124.531 36.5565 124.201 34.7004 123.437 32.9086L108.719 39.1852ZM108.531 38.375C108.531 38.5896 108.496 38.4223 108.657 38.0529C108.836 37.6417 109.131 37.2735 109.445 37.0281L119.305 49.6282C123.063 46.6878 124.531 42.4826 124.531 38.375H108.531ZM109.473 37.0059C109.706 36.8251 109.824 36.8202 109.658 36.8657C109.473 36.9163 109.038 37 108.266 37V53C111.905 53 115.93 52.2454 119.277 49.6503L109.473 37.0059ZM108.266 37H97.0781V53H108.266V37ZM104.062 49.5H108.266V33.5H104.062V49.5ZM108.266 49.5C110.48 49.5 113.498 49.0405 116.103 46.9059L105.96 34.5316C107.293 33.4387 108.468 33.5 108.266 33.5V49.5ZM116.163 46.8563C119.051 44.4411 119.984 41.1432 119.984 38.375H103.984C103.984 38.0811 104.029 37.4746 104.335 36.7207C104.66 35.9224 105.195 35.1707 105.9 34.5812L116.163 46.8563ZM119.984 38.375C119.984 36.0521 119.417 32.9505 117.034 30.3845L105.31 41.2717C104.01 39.8724 103.984 38.4687 103.984 38.375H119.984ZM117.082 30.4364C114.446 27.5474 110.994 26.9375 108.609 26.9375V42.9375C108.559 42.9375 106.814 42.9214 105.262 41.2198L117.082 30.4364ZM108.609 26.9375H104.062V42.9375H108.609V26.9375ZM96.0625 34.9375V41.5H112.062V34.9375H96.0625ZM104.062 39.7812H107.344V23.7812H104.062V39.7812ZM107.344 39.7812C109.513 39.7812 112.43 39.3564 115.005 37.3947L105.308 24.6678C106.57 23.7061 107.612 23.7812 107.344 23.7812V39.7812ZM115.005 37.3947C117.984 35.1246 119.141 31.842 119.141 28.8438H103.141C103.141 28.412 103.216 27.6781 103.599 26.8265C103.999 25.937 104.612 25.1983 105.308 24.6678L115.005 37.3947ZM119.141 28.8438C119.141 26.0043 118.142 22.5168 114.941 20.1156L105.341 32.9156C104.539 32.3145 103.918 31.509 103.54 30.63C103.187 29.8077 103.141 29.1449 103.141 28.8438H119.141ZM114.989 20.1522C112.33 18.1265 109.289 17.7656 107.188 17.7656V33.7656C107.362 33.7656 107.248 33.7849 106.941 33.707C106.624 33.6265 105.994 33.4136 105.292 32.8791L114.989 20.1522ZM107.188 17.7656H104.062V33.7656H107.188V17.7656ZM96.0625 25.7656V31.7812H112.062V25.7656H96.0625ZM122.047 44.2656L117.957 51.1412C117.972 51.1499 117.986 51.1586 118.001 51.1672L122.047 44.2656ZM119.234 41.3125L112.151 45.0312C112.159 45.0465 112.167 45.0619 112.176 45.0772L119.234 41.3125ZM119.188 31.9531L126.389 35.4376C126.392 35.4301 126.396 35.4225 126.4 35.415L119.188 31.9531ZM121.828 28.8906L117.49 22.1692C117.48 22.1752 117.471 22.1812 117.462 22.1873L121.828 28.8906ZM129.734 28.6875L125.721 35.6077L129.734 28.6875ZM132.922 37.9062V45.9062C137.34 45.9062 140.922 42.3245 140.922 37.9062H132.922ZM122.984 37.9062V29.9062C119.541 29.9062 116.484 32.1097 115.395 35.3764L122.984 37.9062ZM122.953 38L115.364 35.4702C115.02 36.501 114.89 37.591 114.982 38.6737L122.953 38ZM123.5 39.9844L116.396 43.6632C116.422 43.7142 116.449 43.7648 116.477 43.8152L123.5 39.9844ZM124.812 41.3438L120.734 48.2261C120.766 48.2449 120.798 48.2634 120.83 48.2818L124.812 41.3438ZM129.188 41.5156L131.415 49.1994C131.439 49.1924 131.462 49.1854 131.486 49.1782L129.188 41.5156ZM131.312 40.5625L138.638 37.3474C137.712 35.2374 135.921 33.6291 133.724 32.9346C131.527 32.24 129.137 32.5266 127.166 33.7209L131.312 40.5625ZM132.547 43.375L137.567 49.6038C140.379 47.3372 141.324 43.4673 139.872 40.1599L132.547 43.375ZM129.906 44.7812L132.526 52.3402C132.54 52.3353 132.554 52.3302 132.569 52.3252L129.906 44.7812ZM123.016 34.8906L116.156 39.0066C117.601 41.4162 120.206 42.8906 123.016 42.8906V34.8906ZM128.656 34.8906V42.8906C133.075 42.8906 136.656 39.3089 136.656 34.8906H128.656ZM128.375 32.7188L120.834 35.3895C120.857 35.4533 120.88 35.5168 120.904 35.5799L128.375 32.7188ZM127.5 31.5625L122.983 38.165C123.009 38.1831 123.036 38.2011 123.062 38.2189L127.5 31.5625ZM124.422 31.6406L129.222 38.0406C129.256 38.0153 129.289 37.9898 129.322 37.9639L124.422 31.6406ZM123.438 32.9375L116.099 29.7528C116.082 29.7919 116.065 29.8311 116.049 29.8705L123.438 32.9375ZM122.969 34.8125L115.025 33.864C114.815 35.6256 115.196 37.4072 116.109 38.9285L122.969 34.8125ZM126.281 37.3281C126.06 37.3281 125.963 37.304 125.959 37.303C125.956 37.3024 125.971 37.3059 125.998 37.317C126.025 37.3281 126.058 37.3438 126.093 37.364L118.001 51.1672C120.614 52.6986 123.465 53.3281 126.281 53.3281V37.3281ZM126.137 37.39C126.134 37.3887 126.145 37.395 126.165 37.4106C126.185 37.4263 126.207 37.4468 126.231 37.471C126.254 37.4953 126.272 37.5176 126.284 37.5345C126.296 37.5513 126.298 37.5573 126.293 37.5478L112.176 45.0772C113.524 47.6053 115.484 49.6699 117.957 51.1412L126.137 37.39ZM126.318 37.5938C126.317 37.5936 126.317 37.5928 126.316 37.5911C126.316 37.5894 126.314 37.5862 126.312 37.5809C126.309 37.5709 126.301 37.5491 126.293 37.512C126.276 37.4393 126.25 37.2868 126.25 37.0312H110.25C110.25 39.7527 110.815 42.4861 112.151 45.0312L126.318 37.5938ZM126.25 37.0312V36.4062H110.25V37.0312H126.25ZM126.25 36.4062C126.25 35.7333 126.371 35.4741 126.389 35.4376L111.986 28.4686C110.754 31.0155 110.25 33.725 110.25 36.4062H126.25ZM126.4 35.415C126.429 35.3544 126.427 35.3747 126.375 35.4351C126.351 35.4633 126.321 35.4937 126.287 35.5235C126.253 35.5532 126.221 35.5768 126.195 35.594L117.462 22.1873C115.017 23.7795 113.191 25.9591 111.975 28.4913L126.4 35.415ZM126.167 35.6121C126.106 35.6513 126.041 35.6862 125.976 35.7151C125.911 35.744 125.856 35.7626 125.814 35.7739C125.729 35.7973 125.736 35.7812 125.875 35.7812V19.7812C123.002 19.7812 120.101 20.4839 117.49 22.1692L126.167 35.6121ZM125.875 35.7812C126.12 35.7812 126.201 35.8058 126.159 35.796C126.11 35.7843 125.944 35.7374 125.721 35.6077L133.748 21.7673C131.198 20.2883 128.44 19.7812 125.875 19.7812V35.7812ZM125.721 35.6077C125.549 35.5085 125.362 35.3637 125.193 35.1779C125.026 34.9944 124.932 34.8318 124.889 34.7415L139.33 27.8523C138.127 25.3305 136.249 23.2178 133.748 21.7673L125.721 35.6077ZM124.889 34.7415C124.793 34.5411 124.922 34.6731 124.922 35.4219H140.922C140.922 32.9415 140.509 30.3235 139.33 27.8523L124.889 34.7415ZM124.922 35.4219V37.9062H140.922V35.4219H124.922ZM132.922 29.9062H122.984V45.9062H132.922V29.9062ZM115.395 35.3764L115.364 35.4702L130.543 40.5298L130.574 40.4361L115.395 35.3764ZM114.982 38.6737C115.121 40.3266 115.551 42.0312 116.396 43.6632L130.604 36.3055C130.845 36.7709 130.91 37.1526 130.925 37.3263L114.982 38.6737ZM116.477 43.8152C117.48 45.6542 118.936 47.1605 120.734 48.2261L128.891 34.4614C129.564 34.8604 130.145 35.4604 130.523 36.1536L116.477 43.8152ZM120.83 48.2818C122.86 49.4473 124.987 49.8281 126.859 49.8281V33.8281C127.127 33.8281 127.89 33.886 128.795 34.4057L120.83 48.2818ZM126.859 49.8281C128.362 49.8281 129.895 49.6398 131.415 49.1994L126.96 33.8319C126.999 33.8207 127.015 33.8194 127.002 33.8211C126.989 33.8229 126.943 33.8281 126.859 33.8281V49.8281ZM131.486 49.1782C132.899 48.7545 134.225 48.1519 135.459 47.4041L127.166 33.7209C127.025 33.8065 126.935 33.8393 126.889 33.853L131.486 49.1782ZM123.987 43.7776L125.221 46.5901L139.872 40.1599L138.638 37.3474L123.987 43.7776ZM127.527 37.1462C127.611 37.0779 127.647 37.0639 127.603 37.0873C127.558 37.1112 127.445 37.1663 127.244 37.2373L132.569 52.3252C134.276 51.7227 136.009 50.8599 137.567 49.6038L127.527 37.1462ZM127.287 37.2223C127.243 37.2375 126.948 37.3281 126.281 37.3281V53.3281C128.344 53.3281 130.466 53.0541 132.526 52.3402L127.287 37.2223ZM123.016 42.8906H128.656V26.8906H123.016V42.8906ZM136.656 34.8906V34.4844H120.656V34.8906H136.656ZM136.656 34.4844C136.656 33.1072 136.473 31.4958 135.846 29.8576L120.904 35.5799C120.652 34.9208 120.656 34.4866 120.656 34.4844H136.656ZM135.916 30.048C135.215 28.0681 133.908 26.2196 131.938 24.9061L123.062 38.2189C121.905 37.4471 121.181 36.3694 120.834 35.3895L135.916 30.048ZM132.017 24.96C129.921 23.5255 127.685 23.1562 125.953 23.1562V39.1562C125.492 39.1562 124.287 39.0578 122.983 38.165L132.017 24.96ZM125.953 23.1562C123.846 23.1562 121.541 23.7522 119.521 25.3173L129.322 37.9639C128.136 38.8832 126.852 39.1562 125.953 39.1562V23.1562ZM119.622 25.2406C117.932 26.5083 116.804 28.1271 116.099 29.7528L130.776 36.1222C130.55 36.6437 130.079 37.398 129.222 38.0406L119.622 25.2406ZM116.049 29.8705C115.494 31.2065 115.181 32.562 115.025 33.864L130.912 35.761C130.924 35.6671 130.922 35.7726 130.826 36.0045L116.049 29.8705ZM116.109 38.9285L116.156 39.0066L129.876 30.7747L129.829 30.6965L116.109 38.9285ZM138.062 44.2969L133.353 50.7637C133.379 50.783 133.406 50.802 133.433 50.8209L138.062 44.2969ZM135.859 41.3906L128.453 44.4149C128.456 44.4221 128.459 44.4294 128.462 44.4366L135.859 41.3906ZM135.859 32.0156L128.408 29.1048C128.401 29.1217 128.395 29.1386 128.388 29.1555L135.859 32.0156ZM138.078 28.9062L142.966 35.2396C142.98 35.2285 142.994 35.2174 143.009 35.2063L138.078 28.9062ZM143.953 28.3438L140.167 35.3909C140.194 35.4056 140.221 35.4202 140.249 35.4345L143.953 28.3438ZM145.766 29.9062L139.377 34.722C141.448 37.4687 145.043 38.5844 148.305 37.4926C151.567 36.4008 153.766 33.3461 153.766 29.9062H145.766ZM145.766 23.8438H153.766C153.766 20.008 151.043 16.7121 147.276 15.9877L145.766 23.8438ZM143.328 23.375H135.328C135.328 27.2107 138.051 30.5067 141.817 31.2311L143.328 23.375ZM143.328 20.625V12.625C138.91 12.625 135.328 16.2067 135.328 20.625H143.328ZM150.328 20.625H158.328C158.328 16.2067 154.746 12.625 150.328 12.625V20.625ZM150.328 41.7969H142.328C142.328 45.5692 144.963 48.8289 148.652 49.6193L150.328 41.7969ZM152.516 42.2656H160.516C160.516 38.4933 157.88 35.2336 154.192 34.4432L152.516 42.2656ZM152.516 45V53C156.934 53 160.516 49.4183 160.516 45H152.516ZM146.375 45L138.484 46.3152C139.127 50.1727 142.464 53 146.375 53V45ZM146.031 42.9375L153.922 41.6223C153.385 38.3975 150.939 35.8242 147.746 35.1234C144.553 34.4227 141.254 35.7355 139.416 38.439L146.031 42.9375ZM144.125 44.7188L140.273 37.7069C140.259 37.7147 140.245 37.7224 140.231 37.7302L144.125 44.7188ZM145.766 40.2031L152.526 44.4803C153.336 43.2006 153.766 41.7174 153.766 40.2031H145.766ZM145.766 33.0312H153.766C153.766 31.6278 153.396 30.2491 152.695 29.0335L145.766 33.0312ZM144.578 31.7812L140.312 38.5487C140.347 38.571 140.383 38.5931 140.419 38.6148L144.578 31.7812ZM141.047 32.0156L146.51 37.8598L146.514 37.8558L141.047 32.0156ZM139.984 33.8906L132.292 31.6929C132.283 31.7237 132.275 31.7547 132.266 31.7857L139.984 33.8906ZM140.406 40.5156L133.502 44.5571C133.509 44.5694 133.517 44.5817 133.524 44.594L140.406 40.5156ZM141.531 37.3281C141.544 37.3281 141.695 37.3305 141.936 37.402C142.186 37.4762 142.45 37.601 142.692 37.7728L133.433 50.8209C135.928 52.5918 138.755 53.3281 141.531 53.3281V37.3281ZM142.772 37.83C142.941 37.9531 143.075 38.0912 143.168 38.214C143.257 38.3318 143.276 38.3919 143.257 38.3446L128.462 44.4366C129.46 46.8597 131.049 49.0861 133.353 50.7637L142.772 37.83ZM143.266 38.3664C143.227 38.2728 143.094 37.8808 143.094 37.0156H127.094C127.094 39.4838 127.47 42.0085 128.453 44.4149L143.266 38.3664ZM143.094 37.0156V36.6875H127.094V37.0156H143.094ZM143.094 36.6875C143.094 35.6508 143.244 35.1011 143.331 34.8757L128.388 29.1555C127.454 31.5968 127.094 34.1617 127.094 36.6875H143.094ZM143.311 34.9264C143.36 34.8001 143.375 34.8039 143.317 34.8851C143.254 34.9724 143.139 35.1056 142.966 35.2396L133.19 22.5729C130.888 24.3498 129.36 26.6682 128.408 29.1048L143.311 34.9264ZM143.009 35.2063C142.763 35.3988 142.464 35.5613 142.145 35.6657C141.834 35.7673 141.605 35.7812 141.516 35.7812V19.7812C138.577 19.7812 135.65 20.6478 133.148 22.6062L143.009 35.2063ZM141.516 35.7812C141.347 35.7812 140.816 35.74 140.167 35.3909L147.74 21.2966C145.694 20.1975 143.539 19.7812 141.516 19.7812V35.7812ZM140.249 35.4345C139.815 35.2079 139.526 34.9188 139.377 34.722L152.154 25.0905C150.985 23.5395 149.487 22.2088 147.657 21.253L140.249 35.4345ZM153.766 29.9062V23.8438H137.766V29.9062H153.766ZM147.276 15.9877L144.839 15.5189L141.817 31.2311L144.255 31.6998L147.276 15.9877ZM151.328 23.375V20.625H135.328V23.375H151.328ZM143.328 28.625H145.766V12.625H143.328V28.625ZM145.766 28.625H150.328V12.625H145.766V28.625ZM142.328 20.625V41.7969H158.328V20.625H142.328ZM148.652 49.6193L150.839 50.088L154.192 34.4432L152.004 33.9745L148.652 49.6193ZM144.516 42.2656V45H160.516V42.2656H144.516ZM152.516 37H146.375V53H152.516V37ZM154.266 43.6848L153.922 41.6223L138.14 44.2527L138.484 46.3152L154.266 43.6848ZM139.416 38.439C139.509 38.3025 139.78 37.9782 140.273 37.7069L147.977 51.7306C149.949 50.6468 151.491 49.135 152.647 47.436L139.416 38.439ZM140.231 37.7302C140.908 37.3533 141.438 37.3281 141.531 37.3281V53.3281C143.625 53.3281 145.884 52.8967 148.019 51.7073L140.231 37.7302ZM142.891 49.7812C144.69 49.7812 146.644 49.3878 148.499 48.3395L140.626 34.4105C141.522 33.9039 142.362 33.7812 142.891 33.7812V49.7812ZM148.499 48.3395C150.236 47.3578 151.568 45.9948 152.526 44.4803L139.005 35.926C139.317 35.4323 139.848 34.8505 140.626 34.4105L148.499 48.3395ZM153.766 40.2031V33.0312H137.766V40.2031H153.766ZM152.695 29.0335C151.79 27.4651 150.49 26.0146 148.738 24.9477L140.419 38.6148C139.624 38.1313 139.116 37.5141 138.836 37.029L152.695 29.0335ZM148.845 25.0138C146.958 23.8245 144.895 23.3281 142.922 23.3281V39.3281C142.198 39.3281 141.24 39.1338 140.312 38.5487L148.845 25.0138ZM142.922 23.3281C140.424 23.3281 137.752 24.1413 135.579 26.1755L146.514 37.8558C145.982 38.3543 145.339 38.7534 144.637 39.011C143.951 39.2624 143.349 39.3281 142.922 39.3281V23.3281ZM135.584 26.1714C133.793 27.8457 132.813 29.8694 132.292 31.6929L147.677 36.0884C147.614 36.3076 147.343 37.0814 146.51 37.8598L135.584 26.1714ZM132.266 31.7857C131.817 33.4331 131.656 35.1005 131.656 36.6875H147.656C147.656 36.1495 147.714 35.9523 147.702 35.9956L132.266 31.7857ZM131.656 36.6875V37.0156H147.656V36.6875H131.656ZM131.656 37.0156C131.656 39.2634 132.015 42.0157 133.502 44.5571L147.31 36.4742C147.568 36.9147 147.648 37.2403 147.666 37.3238C147.683 37.4039 147.656 37.3199 147.656 37.0156H131.656ZM133.524 44.594C135.745 48.3421 139.506 49.7812 142.891 49.7812V33.7812C143.273 33.7812 144.082 33.8516 145.034 34.3365C146.047 34.8525 146.811 35.6305 147.289 36.4372L133.524 44.594Z" fill="#FDC500" mask="url(#path-3-outside-1_87_118)"/>
</svg>
